<?xml version="1.0" encoding="UTF-8" standalone="no"?>
<svg width="182px" height="74px" viewBox="0 0 182 74" version="1.1" xmlns="http://www.w3.org/2000/svg" xmlns:xlink="http://www.w3.org/1999/xlink">
    <!-- Generator: Sketch 3.7.2 (28276) - http://www.bohemiancoding.com/sketch -->
    <title>appstoreicon</title>
    <desc>Created with Sketch.</desc>
    <defs></defs>
    <g id="Assets" stroke="none" stroke-width="1" fill="none" fill-rule="evenodd">
        <g id="appstoreicon">
            <g>
                <rect id="background" fill="#21CE99" x="0" y="0" width="182" height="74" rx="4"></rect>
                <path d="M151.426624,36.3608465 C151.397629,33.1868206 154.065164,31.6426468 154.187143,31.570756 C152.676406,29.4012311 150.334815,29.1048048 149.511958,29.0811695 C147.545301,28.8773149 145.637633,30.2402847 144.635808,30.2402847 C143.613986,30.2402847 142.071255,29.1008656 140.408545,29.134349 C138.268918,29.1668475 136.267267,30.3870207 135.169458,32.2817851 C132.903853,36.1451742 134.593558,41.8225738 136.76418,44.9453897 C137.849991,46.4757764 139.11877,48.182443 140.77948,48.1223699 C142.404197,48.0573728 143.011091,47.1021122 144.971749,47.1021122 C146.914411,47.1021122 147.484311,48.1223699 149.178016,48.0829778 C150.921712,48.0573728 152.019521,46.5476671 153.067338,45.0034932 C154.32212,43.2525103 154.826032,41.5241779 154.846028,41.4355455 C154.806035,41.422743 151.460618,40.1651473 151.426624,36.3608465" id="Fill-2" fill="#FFFFFF"></path>
                <path d="M148.227182,27.0268667 C149.10103,25.9504751 149.698925,24.4860704 149.532954,23 C148.268175,23.0551491 146.686451,23.8617042 145.775609,24.9144605 C144.96975,25.8421466 144.249875,27.3626852 144.435843,28.7926217 C145.856595,28.897011 147.315341,28.0865167 148.227182,27.0268667" id="Fill-3" fill="#FFFFFF"></path>
<!--                 <text id="get-the-app" font-size="16" font-weight="normal" line-spacing="12" fill="#FFFFFF">
                    <tspan x="27" y="42.999794">Get the app</tspan>
                </text> -->
            </g>
        </g>
    </g>
</svg>