<?xml version="1.0" encoding="UTF-8" standalone="no"?>
<svg width="355px" height="351px" viewBox="0 0 355 351" version="1.1" xmlns="http://www.w3.org/2000/svg" xmlns:xlink="http://www.w3.org/1999/xlink">
    <!-- Generator: Sketch 3.7.2 (28276) - http://www.bohemiancoding.com/sketch -->
    <title>illustration2</title>
    <desc>Created with Sketch.</desc>
    <defs>
        <path d="M3,66.7695313 C3,66.7695313 5.73120117,64.5324707 10.4373779,65.651001 C15.1435547,66.7695312 21,67.6676025 21,67.6676025 L21,77.5302734 C21,77.5302734 15.1549805,77.0043402 12,77.0043402 C9.15498047,77.0043402 3,78.1120605 3,78.1120605 L3,66.7695313 Z" id="path-1"></path>
        <mask id="mask-2" maskContentUnits="userSpaceOnUse" maskUnits="objectBoundingBox" x="0" y="0" width="18" height="12.774248" fill="white">
            <use xlink:href="#path-1"></use>
        </mask>
        <path d="M0.0727348074,11.990396 C0.0727348117,5.36828313 5.44900372,0 12.0702287,0 L11.2554488,0 C17.8814817,0 23.3862424,5.36755972 23.5507162,11.990396 L24.9416919,68.0005854 C24.9965464,70.2094011 23.2639581,71.8344423 21.0536281,71.5889635 C21.0536281,71.5889635 16.9402876,71.355957 12.144166,69.9897461 C7.3480444,68.6235352 3.82274973,70.6227011 3.82274973,70.6227011 C1.75167365,71.3833623 0.0727347696,70.2022516 0.072734771,68.0005854 L0.0727348074,11.990396 Z" id="path-3"></path>
        <mask id="mask-4" maskContentUnits="userSpaceOnUse" maskUnits="objectBoundingBox" x="0" y="0" width="24.8702245" height="71.6135016" fill="white">
            <use xlink:href="#path-3"></use>
        </mask>
        <path d="M7.64996196,33.5567778 C4.94041646,33.6728076 2.5852392,33.0501237 2.5852392,33.0501237 C2.5852392,33.0501237 0.211781125,35.5530598 1.44484373,37.7545043 C2.67790634,39.9559488 7.27966147,39.6687882 7.27966147,39.6687882 L49.6781083,39.6687882 C49.6781083,39.6687882 53.132237,40.0999793 58.2399122,37.7545043 C63.3475875,35.4090293 60.0311627,31.1999512 60.0311627,31.1999512 C60.0311627,31.1999512 48.7834921,34.0863307 39.5277557,34.0863307 C30.2720193,34.0863307 23.8391433,32.3600576 17.2309207,32.2613776 C14.0835503,32.2143782 10.1140785,33.4512579 7.64996196,33.5567778 Z" id="path-5"></path>
        <mask id="mask-6" maskContentUnits="userSpaceOnUse" maskUnits="objectBoundingBox" x="0" y="0" width="60" height="8.5" fill="white">
            <use xlink:href="#path-5"></use>
        </mask>
        <path d="M1.72737066,31.6725603 C-0.32075173,28.6301441 2.13200429,25.5818465 2.13200429,25.5818465 C2.13200429,25.5818465 2.09019975,22.889187 2.13200425,22.7535375 C2.76234413,20.7081777 3.83459046,18.9372623 3.83459046,18.9372623 L3.14843739,11.4794923 L4.80773923,10.2782825 C5.25389243,9.95530112 5.46357251,9.27001359 5.27533606,8.74559749 L5.01610449,8.02339298 C4.80992323,7.44898365 4.93674035,6.57971171 5.28738236,6.0982635 L7.82812513,2.60970245 C7.82812513,2.60970245 9.63362221,0.650920611 16.1112612,0.210931556 C22.5889003,-0.229057499 27.7887236,0.797915948 27.7887236,0.797915948 C28.8772625,0.970831096 29.7873616,2.01454354 29.8429083,3.09981813 C29.8429083,3.09981813 29.891565,11.6680104 32.8566896,15.5170902 C35.8218142,19.3661699 42.780021,22.488596 51.376465,24.5642081 C59.9729089,26.6398203 59.7555536,28.776801 60.5834962,30.7082511 C59.7555538,32.6797823 50.8212892,34.4501964 37.7377931,34.4501964 C33.4887642,34.4501964 26.5539552,33.5073253 26.5539552,33.5073253 C26.5539552,33.5073253 19.8420411,32.3168956 15.3249513,32.625001 C7.50268568,34.1032725 3.77549305,34.7149764 1.72737066,31.6725603 Z" id="path-7"></path>
        <mask id="mask-8" maskContentUnits="userSpaceOnUse" maskUnits="objectBoundingBox" x="0" y="0" width="59.6721649" height="34.3488541" fill="white">
            <use xlink:href="#path-7"></use>
        </mask>
        <circle id="path-9" cx="56.6420562" cy="10.2638389" r="10"></circle>
        <mask id="mask-10" maskContentUnits="userSpaceOnUse" maskUnits="objectBoundingBox" x="0" y="0" width="20" height="20" fill="white">
            <use xlink:href="#path-9"></use>
        </mask>
        <path d="M37.8359374,0.776855468 C30.3945292,0.776855474 37.8359374,0.776855468 37.8359374,0.776855468 C26.5238082,1.85041288 17.729144,14.3610337 17.6769146,28.7066606 C17.6769146,28.7066606 19.7509766,41.8256836 13.0439453,77.8554687 C6.33691406,113.885254 4.46191394,107.625977 0.0615234369,133.28418 C1.26367195,157.462891 32.8901376,136.853284 40.8315439,136.065433 C48.7729501,135.277582 53.3798828,141.755371 62.034668,137.134766 C70.6894531,132.51416 55.6298828,123.769531 59.2070312,112.443359 C92.4560547,83.7753906 52.3383784,32.5541992 52.3383784,32.5541992 C52.3383784,32.5541992 40.3515533,32.7875975 38.6484278,20.0996093" id="path-11"></path>
        <rect id="path-13" x="0.436574472" y="0.804655045" width="40" height="8" rx="5"></rect>
        <mask id="mask-14" maskContentUnits="userSpaceOnUse" maskUnits="objectBoundingBox" x="0" y="0" width="40" height="8" fill="white">
            <use xlink:href="#path-13"></use>
        </mask>
        <circle id="path-15" cx="10.5976725" cy="10.7182872" r="10"></circle>
        <mask id="mask-16" maskContentUnits="userSpaceOnUse" maskUnits="objectBoundingBox" x="0" y="0" width="20" height="20" fill="white">
            <use xlink:href="#path-15"></use>
        </mask>
        <path d="M49.6289826,37.1901933 C49.6289826,37.1901933 49.7563079,22.7749812 49.6289826,21.7659971 C48.1129945,9.75260456 37.8481786,0 25.4109589,0 C11.9291586,0 1,10.9177769 1,24.3855372 L1,37.1901933" id="path-17"></path>
        <mask id="mask-18" maskContentUnits="userSpaceOnUse" maskUnits="objectBoundingBox" x="0" y="0" width="48.6855716" height="37.1901933" fill="white">
            <use xlink:href="#path-17"></use>
        </mask>
        <path d="M12.5856934,34 L8.94001368,9.87311059 C8.69268611,8.23631159 9.51423774,6.03527257 10.7792237,4.95334034 L15.2683837,1.11379833 C16.5314789,0.033483251 18.5148333,0.0903619614 19.704254,1.2465995 L21.878418,3.36010742 L34.4858398,3.36010742 L36.9290663,1.16044962 C38.1576227,0.0543697445 40.1495991,0.0469344284 41.389617,1.15397252 L45.6003732,4.91316615 C46.835311,6.01566882 47.6608662,8.23980963 47.4434352,9.88749617 L44.1965332,34.4924316 L52.4904785,62.6884766 L45.4375,71 L11.4238281,71 L5.50756836,62.6884766 L12.5856934,34 Z" id="path-19"></path>
        <mask id="mask-20" maskContentUnits="userSpaceOnUse" maskUnits="objectBoundingBox" x="0" y="0" width="46.9829102" height="70.6727164" fill="white">
            <use xlink:href="#path-19"></use>
        </mask>
        <circle id="path-21" cx="6.5" cy="6.5" r="6.5"></circle>
        <mask id="mask-22" maskContentUnits="userSpaceOnUse" maskUnits="objectBoundingBox" x="0" y="0" width="13" height="13" fill="white">
            <use xlink:href="#path-21"></use>
        </mask>
        <circle id="path-23" cx="6.5" cy="6.5" r="6.5"></circle>
        <mask id="mask-24" maskContentUnits="userSpaceOnUse" maskUnits="objectBoundingBox" x="0" y="0" width="13" height="13" fill="white">
            <use xlink:href="#path-23"></use>
        </mask>
        <circle id="path-25" cx="19" cy="15" r="4"></circle>
        <mask id="mask-26" maskContentUnits="userSpaceOnUse" maskUnits="objectBoundingBox" x="0" y="0" width="8" height="8" fill="white">
            <use xlink:href="#path-25"></use>
        </mask>
        <path d="M11.3356931,46.5754395 L1.3418847,42.9196038 C0.827440121,42.7314148 0.403545976,43.0267721 0.418519747,43.5752684 C0.418519747,43.5752684 0.176269253,46.7724609 2.38427727,50.8640137 C4.59228528,54.9555664 9.04687471,55.7507324 9.04687471,55.7507324 L11.3356931,46.5754395 Z" id="path-27"></path>
        <mask id="mask-28" maskContentUnits="userSpaceOnUse" maskUnits="objectBoundingBox" x="0" y="0" width="10.9250174" height="12.887887" fill="white">
            <use xlink:href="#path-27"></use>
        </mask>
        <linearGradient x1="90.2129681%" y1="9.12042396%" x2="11.4489101%" y2="88.6837467%" id="linearGradient-29">
            <stop stop-color="#CE81FF" offset="0%"></stop>
            <stop stop-color="#9F4AFF" offset="100%"></stop>
        </linearGradient>
        <linearGradient x1="25.7449128%" y1="23.5646802%" x2="96.3222593%" y2="100%" id="linearGradient-30">
            <stop stop-color="#45E9CA" offset="0%"></stop>
            <stop stop-color="#21CE99" offset="100%"></stop>
        </linearGradient>
        <linearGradient x1="100%" y1="0%" x2="0%" y2="100%" id="linearGradient-31">
            <stop stop-color="#45E9CA" offset="0%"></stop>
            <stop stop-color="#21CE99" offset="100%"></stop>
        </linearGradient>
        <circle id="path-32" cx="344" cy="119" r="9"></circle>
        <mask id="mask-33" maskContentUnits="userSpaceOnUse" maskUnits="objectBoundingBox" x="0" y="0" width="18" height="18" fill="white">
            <use xlink:href="#path-32"></use>
        </mask>
        <circle id="path-34" cx="251" cy="16" r="6"></circle>
        <mask id="mask-35" maskContentUnits="userSpaceOnUse" maskUnits="objectBoundingBox" x="0" y="0" width="12" height="12" fill="white">
            <use xlink:href="#path-34"></use>
        </mask>
        <linearGradient x1="25.7449128%" y1="23.5646802%" x2="100%" y2="100%" id="linearGradient-36">
            <stop stop-color="#45E9CA" offset="0%"></stop>
            <stop stop-color="#21CE99" offset="100%"></stop>
        </linearGradient>
        <path d="M-5.68434189e-14,34.9981619 C-5.68434189e-14,15.6692108 15.6711905,0 34.9928973,0 L256.007103,0 C275.333146,0 291,15.6673108 291,34.9981619 L291,37.0018381 C291,56.3307892 275.320556,72 255.990172,72 L65.1532353,72 L58.9652409,83.435865 C57.1270394,86.8329956 54.1488066,86.8389587 52.3059592,83.435865 L46.1131962,72 L35.0092549,72 C15.6741773,72 -5.68434189e-14,56.3326892 -5.68434189e-14,37.0018381 L-5.68434189e-14,34.9981619 Z" id="path-37"></path>
        <mask id="mask-38" maskContentUnits="userSpaceOnUse" maskUnits="objectBoundingBox" x="0" y="0" width="291" height="85.9859496" fill="white">
            <use xlink:href="#path-37"></use>
        </mask>
    </defs>
    <g id="Assets" stroke="none" stroke-width="1" fill="none" fill-rule="evenodd">
        <g id="illustration2">
            <g transform="translate(1.000000, 0.000000)">
                <rect id="Rectangle-117" fill="#FFFFFF" x="0" y="0" width="353" height="351"></rect>
                <g id="floor" transform="translate(11.000000, 339.000000)" stroke="#525A6E" stroke-width="2" stroke-linecap="round" stroke-linejoin="round">
                    <path d="M0,1 L17,1 L0,1 Z" id="Path-347"></path>
                    <path d="M23,1 L60,1 L23,1 Z" id="Path-347-Copy"></path>
                    <path d="M98,1 L161,1 L98,1 Z" id="Path-347-Copy-2"></path>
                    <path d="M221,1 L231,1 L221,1 Z" id="Path-347-Copy-6"></path>
                    <path d="M238,1 L331,1 L238,1 Z" id="Path-347-Copy-7"></path>
                </g>
                <g id="second-floor" transform="translate(58.000000, 348.000000)" stroke="#525A6E" stroke-width="2" stroke-linecap="round" stroke-linejoin="round">
                    <path d="M0,1 L76,1 L0,1 Z" id="Path-347-Copy-3"></path>
                    <path d="M105,1 L188,1 L105,1 Z" id="Path-347-Copy-4"></path>
                    <path d="M195,1 L205,1 L195,1 Z" id="Path-347-Copy-5"></path>
                </g>
                <g id="guy" transform="translate(105.000000, 96.000000)">
                    <g id="legs" transform="translate(78.000000, 136.000000)" stroke="#525A6E" stroke-width="4">
                        <use id="Rectangle-182" mask="url(#mask-2)" xlink:href="#path-1"></use>
                        <use id="Rectangle-177" mask="url(#mask-4)" fill="#4B4B4B" xlink:href="#path-3"></use>
                    </g>
                    <g id="shoe" transform="translate(72.000000, 213.000000)">
                        <use id="Path-214" stroke="#525A6E" mask="url(#mask-6)" stroke-width="4" fill="#FFFFFF" xlink:href="#path-5"></use>
                        <path d="M7.6155711,29.7924803 C5.96331981,28.231201 7.61557115,26.4768065 7.61557115,26.4768065 C7.61557115,26.4768065 7.57376658,23.5794969 7.61557108,23.4438475 C8.24591096,21.3984877 9.65893568,19.7260741 9.65893568,19.7260741 L9.3350572,14.4368671 C9.29792447,13.8304584 9.73424649,13.2060559 10.3056648,12.9959477 C10.3056648,12.9959477 11.0644533,12.9177245 11.4340822,12.1665037 C11.8037111,11.415283 11.4164726,10.2899594 11.4164726,10.2899594 C11.2776772,9.69672866 11.2505235,8.73242879 11.4229832,8.14197911 C11.4229832,8.14197911 11.5816873,4.20659073 18.0593263,3.76660167 C24.5369653,3.32661261 28.3059561,3.99620447 28.3059561,3.99620447 C29.3948584,4.13300104 30.1576619,5.12798704 30.0519932,6.2201404 C30.0519932,6.2201404 28.9071892,12.3555099 31.8723138,16.2045897 C34.8374384,20.0536695 43.2385163,23.0747783 51.8349603,25.1503905 C60.4314043,27.2260026 59.5729364,27.8610302 60.4008791,29.7924803 C59.5729366,31.7640116 53.9208978,32.1650389 40.8374017,32.1650389 C36.5883728,32.1650389 30.2775881,31.0146483 30.2775881,31.0146483 C30.2775881,31.0146483 22.5764162,28.4868162 18.0593263,28.7949217 C10.2370607,30.2731932 9.26782239,31.3537596 7.6155711,29.7924803 Z" id="Path-214-Copy-3" fill="#E2E2E2"></path>
                        <use id="Path-214-Copy-2" stroke="#525A6E" mask="url(#mask-8)" stroke-width="4" xlink:href="#path-7"></use>
                        <path d="M22.0932617,31.6499025 C22.0932617,31.6499025 23.1249328,26.8913039 25.4433595,26.5046387 C27.7617862,26.1179735 43.4423489,28.8335915 48.25,28.6960448 C54.4941628,28.5173996 56.3381348,27.6120606 56.3381348,27.6120606" id="Path-218" stroke="#525A6E" stroke-linecap="round"></path>
                        <path d="M10.9991918,32.0878966 C10.9991918,32.0878966 14.9072479,30.661222 15.4353448,25.5676448 C15.9634417,20.4740676 15.028556,8.35394436 15.028556,8.35394436" id="Path-216" stroke="#525A6E" stroke-linecap="round"></path>
                        <path d="M7.55711206,4.50926543 C7.55711206,4.50926543 8.14924567,6.92545374 10.1252694,7.8844798 C12.1012931,8.84350586 17.5757004,7.23387481 18.7718211,9.12030774 C19.9679418,11.0067407 19.9679418,21.6291802 19.9679418,25.0815668 C19.9679418,28.5339534 17.8693427,31.6846179 17.8693427,31.6846179" id="Path-217" stroke="#525A6E" stroke-linecap="round"></path>
                        <g id="lip" transform="translate(28.000000, 18.000000)" stroke="#525A6E">
                            <path d="M5.4567873,0.016601564 L0.66952776,10.6781225 C0.558101909,10.9262747 0.684741429,11.1355816 0.959027416,11.1463819 C0.959027416,11.1463819 6.09926506,11.3288375 8.01529627,11.6337895 C9.60638514,11.8870243 13.5783869,12.5439013 13.5783869,12.5439013 C13.8495304,12.5886909 14.1258374,12.4096986 14.1978379,12.1353389 L16.0278316,5.16210938" id="Path-219" stroke-width="2"></path>
                            <path d="M2.19726562,8.20394075 C3.11994881,8.20394075 13.8410645,10.3361815 13.8410645,10.3361815" id="Path-220"></path>
                        </g>
                        <g id="dots" transform="translate(44.000000, 25.000000)" fill="#525A6E">
                            <circle id="Oval-196" cx="0.5" cy="1.5" r="0.5"></circle>
                            <circle id="Oval-196-Copy" cx="1.5" cy="2.5" r="0.5"></circle>
                            <circle id="Oval-196-Copy-2" cx="1.5" cy="0.5" r="0.5"></circle>
                            <circle id="Oval-196-Copy-3" cx="2.5" cy="1.5" r="0.5"></circle>
                            <circle id="Oval-196-Copy-4" cx="3.5" cy="2.5" r="0.5"></circle>
                            <circle id="Oval-196-Copy-5" cx="3.5" cy="0.5" r="0.5"></circle>
                            <circle id="Oval-196-Copy-6" cx="4.5" cy="1.5" r="0.5"></circle>
                            <circle id="Oval-196-Copy-7" cx="5.5" cy="2.5" r="0.5"></circle>
                            <circle id="Oval-196-Copy-8" cx="6.5" cy="1.5" r="0.5"></circle>
                            <circle id="Oval-196-Copy-9" cx="7.5" cy="2.5" r="0.5"></circle>
                            <circle id="Oval-196-Copy-10" cx="9.5" cy="2.5" r="0.5"></circle>
                        </g>
                        <g id="laces" transform="translate(22.000000, 0.000000)">
                            <path d="M0.911865234,0.487304688 L1.20589148,5.56676364 C1.30164715,7.22099347 2.70750596,8.40766628 4.35155134,8.21662238 L8.43655088,7.74193097 C8.9812697,7.67863271 9.47684294,8.07703042 9.54197337,8.61952215 L9.53651784,8.57408136 C9.602307,9.12205985 9.22532,9.65597315 8.67377017,9.77092941 L5.04716869,10.5268005 C3.97021303,10.7512639 3.2112351,11.8184804 3.35292867,12.9181368 L3.34409281,12.8495634 C3.48534555,13.9457985 4.42617952,14.4840435 5.43565212,14.0559454 L9.52643334,12.3211229 C10.0366804,12.1047369 10.5503882,12.3672022 10.674421,12.9099336 L10.7207206,13.1125274 C10.8444896,13.6541046 10.5243987,14.271385 10.0158293,14.4870003 L6.66333645,15.9083373 C5.64977715,16.3380502 5.43131708,17.3529603 6.17668737,18.1766336 L5.91974817,17.8927023 C6.66453861,18.7157349 8.01454336,18.8790698 8.92428363,18.264803 L11.4905613,16.5320236 C11.9517866,16.2205991 12.6616977,16.2633542 13.0827026,16.6332397 L13.0827026,16.6332397 C13.5007927,17.0005644 13.4576659,17.5380526 12.99417,17.8288634 L12.3256836,18.248291" id="Path-221" stroke="#525A6E"></path>
                            <path d="M0.900146484,1.1315918 L1.15654141,4.57270563 C1.27955237,6.2236538 2.70750596,7.40766628 4.35155134,7.21662238 L8.43655088,6.74193097 C8.9812697,6.67863271 9.47684294,7.07703042 9.54197337,7.61952215 L9.53651784,7.57408136 C9.602307,8.12205985 9.22532,8.65597315 8.67377017,8.77092941 L5.04716869,9.52680045 C3.97021303,9.75126393 3.2112351,10.8184804 3.35292867,11.9181368 L3.34409281,11.8495634 C3.48534555,12.9457985 4.42617952,13.4840435 5.43565212,13.0559454 L9.52643334,11.3211229 C10.0366804,11.1047369 10.5503882,11.3672022 10.674421,11.9099336 L10.7207206,12.1125274 C10.8444896,12.6541046 10.5243987,13.271385 10.0158293,13.4870003 L6.66333645,14.9083373 C5.64977715,15.3380502 5.43131708,16.3529603 6.17668737,17.1766336 L5.91974817,16.8927023 C6.66453861,17.7157349 8.01454336,17.8790698 8.92428363,17.264803 L11.4905613,15.5320236 C11.9517866,15.2205991 12.6616977,15.2633542 13.0827026,15.6332397 L13.0827026,15.6332397 C13.5007927,16.0005644 13.4576659,16.5380526 12.99417,16.8288634 L12.3256836,17.248291" id="Path-221-Copy" stroke="#DEE2E9"></path>
                            <path d="M0.923828125,1.05737305 L1.13155855,3.56806615 C1.26836717,5.22157663 2.70750596,6.40766628 4.35155134,6.21662238 L8.43655088,5.74193097 C8.9812697,5.67863271 9.47684294,6.07703042 9.54197337,6.61952215 L9.53651784,6.57408136 C9.602307,7.12205985 9.22532,7.65597315 8.67377017,7.77092941 L5.04716869,8.52680045 C3.97021303,8.75126393 3.2112351,9.81848044 3.35292867,10.9181368 L3.34409281,10.8495634 C3.48534555,11.9457985 4.42617952,12.4840435 5.43565212,12.0559454 L9.52643334,10.3211229 C10.0366804,10.1047369 10.5503882,10.3672022 10.674421,10.9099336 L10.7207206,11.1125274 C10.8444896,11.6541046 10.5243987,12.271385 10.0158293,12.4870003 L6.66333645,13.9083373 C5.64977715,14.3380502 5.43131708,15.3529603 6.17668737,16.1766336 L5.91974817,15.8927023 C6.66453861,16.7157349 8.01454336,16.8790698 8.92428363,16.264803 L11.4905613,14.5320236 C11.9517866,14.2205991 12.6616977,14.2633542 13.0827026,14.6332397 L13.0827026,14.6332397 C13.5007927,15.0005644 13.4576659,15.5380526 12.99417,15.8288634 L12.3256836,16.248291" id="Path-221-Copy-2" stroke="#525A6E" stroke-linecap="round"></path>
                        </g>
                    </g>
                    <g id="chain" transform="translate(0.000000, 117.000000)" stroke="#525A6E">
                        <path d="M52.3154297,12.9785156 C52.3154297,12.9785156 42.9902344,54.3663406 30.3232422,77.2509766 C17.65625,100.135612 0.474609375,95.7460937 0.474609375,95.7460937" id="Path-228" stroke-width="2"></path>
                        <use id="Oval-195" mask="url(#mask-10)" stroke-width="4" fill="#FFFFFF" xlink:href="#path-9"></use>
                    </g>
                    <g id="shirt" transform="translate(49.000000, 25.000000)">
                        <path d="M23.824707,149.950195 C24.0361428,149.950195 29.5616218,146.618243 29.5616218,146.618243 C31.3087613,145.572148 34.3516438,144.372097 36.3345833,143.94294 L40.8233973,142.97145 C42.4389063,142.621815 45.0766525,142.513369 46.7204562,142.729953 L55.5258789,143.890137" id="Path-226" stroke="#FFFFFF" stroke-width="10" stroke-linecap="round" stroke-linejoin="round"></path>
                        <g id="Group" transform="translate(0.000000, 4.000000)">
                            <mask id="mask-12" fill="white">
                                <use xlink:href="#path-11"></use>
                            </mask>
                            <use id="shirt-copy" fill="#FEE6D1" xlink:href="#path-11"></use>
                        </g>
                        <path d="M40.2597654,0.432128907 L38.1461863,0.432128906 C23.7831719,0.432128899 12.3495871,12.0721413 12.5081651,26.4367966 C12.5081651,26.4367966 13.0973497,40.8202325 12.1396482,77.7434969 C11.1819467,114.666761 -2.37597739,149.172852 12.1396482,151.529297 C26.6552738,153.885742 32.3183586,145.675332 40.2597649,144.887481 C48.2011711,144.09963 57.290039,149.202148 62.915039,141.039062 C68.540039,132.875977 61.628905,129.650391 62.915039,120.302734 C81.6328415,76.603613 53.3281242,33.481458 53.3281242,33.481458" stroke="#525A6E" stroke-width="2" stroke-linecap="round"></path>
                    </g>
                    <g id="arm" transform="translate(118.146675, 118.496882) rotate(-340.000000) translate(-118.146675, -118.496882) translate(70.146675, 87.496882)">
                        <g transform="translate(0.000000, 0.000000)">
                            <path d="M1.07113848,33.8984559 C1.07113848,33.8984559 -2.40656342,39.9186984 4.33105475,40.0413849 C6.23783802,40.0761059 21.1791301,28.108657 21.6233341,27.8574078 C24.6631283,26.1380496 28.1599552,21.2108815 21.6233341,17.6937916 C15.086713,14.1767018 7.04503554,0.455597401 7.04503554,0.455597401" id="Path-211" stroke="#525A6E" stroke-width="2" stroke-linecap="round"></path>
                            <path d="M12.472105,38.7268023 C12.472105,38.7268023 14.4405433,45.3343878 19.884087,47.397265 C25.3276308,49.4601421 38.1598911,46.0361676 38.1598911,46.0361676 C38.1598911,46.0361676 44.194764,44.4236544 47.2265282,42.1396599 C52.7987442,37.9418035 52.4040107,27.868654 44.2943324,32.4674261 C32.1510528,39.3535408 26.6418762,34.0235739 24.450983,29.723021" id="Path-212-Copy" fill="#FFFFFF"></path>
                            <path d="M10.5348912,43.1325637 C10.5348912,43.1325637 10.6237537,48.5030528 18.289774,51.7883254 C25.9557944,55.073598 38.871317,49.3635207 38.871317,49.3635207" id="Path-212" stroke="#525A6E" stroke-width="2" stroke-linecap="round"></path>
                        </g>
                        <g id="phone" transform="translate(51.766957, 33.335784)">
                            <use stroke="#525A6E" mask="url(#mask-14)" stroke-width="4" fill="#7E7E7E" xlink:href="#path-13"></use>
                            <g id="flash" transform="translate(24.436574, 12.804655)" stroke="#FAC54B" stroke-width="2" stroke-linecap="round">
                                <path d="M5.04101563,0.431640625 L0.407226563,7.40917969" id="Path-204"></path>
                                <path d="M18.3835477,0.431640625 L15.4072266,4.91337176" id="Path-204-Copy-2" transform="translate(16.895387, 2.672506) scale(-1, 1) translate(-16.895387, -2.672506) "></path>
                                <path d="M10.0410156,1.43164063 L10.0410156,14.8574219" id="Path-204-Copy"></path>
                            </g>
                        </g>
                        <g id="hand" transform="translate(42.169285, 26.617497)" stroke="#525A6E" stroke-width="4" fill="#FFFFFF">
                            <use id="Oval-195" mask="url(#mask-16)" xlink:href="#path-15"></use>
                        </g>
                    </g>
                    <g id="neck" transform="translate(95.000000, 24.000000)" stroke="#525A6E" stroke-width="2" stroke-linecap="round">
                        <path d="M5.48730469,0.447265625 L0.0263671875,2.45507813" id="Path-208"></path>
                        <path d="M7.12744141,26.5766602 L3.87653152,28.7310941" id="Path-208-Copy"></path>
                    </g>
                    <g id="head" transform="translate(142.000000, 34.000000) rotate(-270.000000) translate(-142.000000, -34.000000) translate(108.500000, -5.500000)">
                        <g transform="translate(3.068493, 0.000000)">
                            <use id="Oval-43" stroke="#525A6E" mask="url(#mask-18)" stroke-width="4" fill="#FFFFFF" xlink:href="#path-17"></use>
                            <g id="hair" opacity="0.24" transform="translate(0.678082, 1.354752)" fill="#525A6E">
                                <g transform="translate(24.054795, 0.000000)">
                                    <ellipse id="Oval-82" cx="21.6986301" cy="18.9665289" rx="0.678082192" ry="0.677376033"></ellipse>
                                    <ellipse id="Oval-82-Copy" cx="20.3424658" cy="16.2570248" rx="0.678082192" ry="0.677376033"></ellipse>
                                    <ellipse id="Oval-82-Copy-3" cx="19.6643836" cy="13.5475207" rx="0.678082192" ry="0.677376033"></ellipse>
                                    <ellipse id="Oval-82-Copy-4" cx="16.9520548" cy="12.1927686" rx="0.678082192" ry="0.677376033"></ellipse>
                                    <ellipse id="Oval-82-Copy-5" cx="19.6643836" cy="10.8380165" rx="0.678082192" ry="0.677376033"></ellipse>
                                    <ellipse id="Oval-82-Copy-6" cx="16.9520548" cy="9.48326446" rx="0.678082192" ry="0.677376033"></ellipse>
                                    <ellipse id="Oval-82-Copy-7" cx="14.239726" cy="10.1606405" rx="0.678082192" ry="0.677376033"></ellipse>
                                    <ellipse id="Oval-82-Copy-8" cx="14.239726" cy="7.45113636" rx="0.678082192" ry="0.677376033"></ellipse>
                                    <ellipse id="Oval-82-Copy-9" cx="16.9520548" cy="6.77376033" rx="0.678082192" ry="0.677376033"></ellipse>
                                    <ellipse id="Oval-82-Copy-10" cx="22.3767123" cy="14.9022727" rx="0.678082192" ry="0.677376033"></ellipse>
                                    <ellipse id="Oval-82-Copy-11" cx="23.0547945" cy="22.3534091" rx="0.678082192" ry="0.677376033"></ellipse>
                                    <ellipse id="Oval-82-Copy-13" cx="11.5273973" cy="10.1606405" rx="0.678082192" ry="0.677376033"></ellipse>
                                    <ellipse id="Oval-82-Copy-14" cx="11.5273973" cy="6.77376033" rx="0.678082192" ry="0.677376033"></ellipse>
                                    <ellipse id="Oval-82-Copy-15" cx="13.5616438" cy="4.74163223" rx="0.678082192" ry="0.677376033"></ellipse>
                                    <ellipse id="Oval-82-Copy-16" cx="10.8493151" cy="4.0642562" rx="0.678082192" ry="0.677376033"></ellipse>
                                    <ellipse id="Oval-82-Copy-17" cx="8.1369863" cy="8.1285124" rx="0.678082192" ry="0.677376033"></ellipse>
                                    <ellipse id="Oval-82-Copy-18" cx="7.45890411" cy="4.74163223" rx="0.678082192" ry="0.677376033"></ellipse>
                                    <ellipse id="Oval-82-Copy-19" cx="8.1369863" cy="2.0321281" rx="0.678082192" ry="0.677376033"></ellipse>
                                    <ellipse id="Oval-82-Copy-21" cx="4.74657534" cy="6.0963843" rx="0.678082192" ry="0.677376033"></ellipse>
                                    <ellipse id="Oval-82-Copy-22" cx="2.03424658" cy="7.45113636" rx="0.678082192" ry="0.677376033"></ellipse>
                                    <ellipse id="Oval-82-Copy-23" cx="2.03424658" cy="4.0642562" rx="0.678082192" ry="0.677376033"></ellipse>
                                    <ellipse id="Oval-82-Copy-24" cx="4.74657534" cy="2.70950413" rx="0.678082192" ry="0.677376033"></ellipse>
                                    <ellipse id="Oval-82-Copy-25" cx="2.71232877" cy="0.677376033" rx="0.678082192" ry="0.677376033"></ellipse>
                                    <ellipse id="Oval-82-Copy-27" cx="0.678082192" cy="2.0321281" rx="0.678082192" ry="0.677376033"></ellipse>
                                </g>
                                <g id="hair-copy" transform="translate(11.876712, 12.000000) scale(-1, 1) translate(-11.876712, -12.000000) translate(0.376712, 0.000000)">
                                    <ellipse id="Oval-82" cx="20.3424658" cy="18.9665289" rx="0.678082192" ry="0.677376033"></ellipse>
                                    <ellipse id="Oval-82-Copy" cx="18.9863014" cy="16.2570248" rx="0.678082192" ry="0.677376033"></ellipse>
                                    <ellipse id="Oval-82-Copy-3" cx="18.3082192" cy="13.5475207" rx="0.678082192" ry="0.677376033"></ellipse>
                                    <ellipse id="Oval-82-Copy-4" cx="15.5958904" cy="12.1927686" rx="0.678082192" ry="0.677376033"></ellipse>
                                    <ellipse id="Oval-82-Copy-5" cx="18.3082192" cy="10.8380165" rx="0.678082192" ry="0.677376033"></ellipse>
                                    <ellipse id="Oval-82-Copy-6" cx="15.5958904" cy="9.48326446" rx="0.678082192" ry="0.677376033"></ellipse>
                                    <ellipse id="Oval-82-Copy-7" cx="12.8835616" cy="10.1606405" rx="0.678082192" ry="0.677376033"></ellipse>
                                    <ellipse id="Oval-82-Copy-8" cx="12.8835616" cy="7.45113636" rx="0.678082192" ry="0.677376033"></ellipse>
                                    <ellipse id="Oval-82-Copy-9" cx="15.5958904" cy="6.77376033" rx="0.678082192" ry="0.677376033"></ellipse>
                                    <ellipse id="Oval-82-Copy-10" cx="21.0205479" cy="14.9022727" rx="0.678082192" ry="0.677376033"></ellipse>
                                    <ellipse id="Oval-82-Copy-11" cx="21.6986301" cy="22.3534091" rx="0.678082192" ry="0.677376033"></ellipse>
                                    <ellipse id="Oval-82-Copy-13" cx="10.1712329" cy="10.1606405" rx="0.678082192" ry="0.677376033"></ellipse>
                                    <ellipse id="Oval-82-Copy-14" cx="10.1712329" cy="6.77376033" rx="0.678082192" ry="0.677376033"></ellipse>
                                    <ellipse id="Oval-82-Copy-15" cx="12.2054795" cy="4.74163223" rx="0.678082192" ry="0.677376033"></ellipse>
                                    <ellipse id="Oval-82-Copy-16" cx="9.49315068" cy="4.0642562" rx="0.678082192" ry="0.677376033"></ellipse>
                                    <ellipse id="Oval-82-Copy-17" cx="6.78082192" cy="8.1285124" rx="0.678082192" ry="0.677376033"></ellipse>
                                    <ellipse id="Oval-82-Copy-18" cx="6.10273973" cy="4.74163223" rx="0.678082192" ry="0.677376033"></ellipse>
                                    <ellipse id="Oval-82-Copy-19" cx="6.78082192" cy="2.0321281" rx="0.678082192" ry="0.677376033"></ellipse>
                                    <ellipse id="Oval-82-Copy-21" cx="3.39041096" cy="6.0963843" rx="0.678082192" ry="0.677376033"></ellipse>
                                    <ellipse id="Oval-82-Copy-22" cx="0.678082192" cy="7.45113636" rx="0.678082192" ry="0.677376033"></ellipse>
                                    <ellipse id="Oval-82-Copy-23" cx="0.678082192" cy="4.0642562" rx="0.678082192" ry="0.677376033"></ellipse>
                                    <ellipse id="Oval-82-Copy-24" cx="3.39041096" cy="2.70950413" rx="0.678082192" ry="0.677376033"></ellipse>
                                    <ellipse id="Oval-82-Copy-25" cx="1.35616438" cy="0.677376033" rx="0.678082192" ry="0.677376033"></ellipse>
                                </g>
                            </g>
                        </g>
                        <g id="eyes" transform="translate(14.917808, 28.449793)" stroke="#535A6E" stroke-width="2" stroke-linecap="round">
                            <path d="M19.860579,4.0642562 C19.860579,4.0642562 20.8445928,0.253354512 24.4753786,0.253354512 C28.1061644,0.253354512 29.0901782,4.0642562 29.0901782,4.0642562" id="Path-214-Copy"></path>
                        </g>
                        <g id="beard" transform="translate(-0.000000, 36.255682)">
                            <path d="M51.9467365,5.83334501 C51.9467365,7.32451682 50.963281,7.82492087 49.7118004,7.01336571 C49.7118004,7.01336571 42.7922062,1.28264856 30.4794521,1.28264856 C18.1666979,1.28264856 11.2328333,7.02219156 11.2328333,7.02219156 C10.0063935,7.85678155 9.01216761,7.32882848 9.01216761,5.83334501 L9.01216761,2.70000541 C9.01216761,1.2088336 7.80715178,0 6.31923809,0 L6.72717609,0 C5.23991219,0 4.03424658,1.20787649 4.03424658,2.70085522 L4.03424658,14.118254 C4.03424658,16.7319485 5.21610544,20.6128005 6.79655255,22.6917961 C6.79655255,22.6917961 14.6384411,36.552579 31.5928136,36.552579 C48.547186,36.552579 53.3248347,32.0187597 53.3248347,32.0187597 C55.569229,30.7130009 58.8787975,28.150876 60.5977923,26.1783206 C60.5977923,26.1783206 68.0761701,19.892267 65.8476545,11.2658024 C63.6191388,2.63933778 54.5102272,0.796399896 54.5102272,0.796399896 C53.0944504,0.356560379 51.9467365,1.20452194 51.9467365,2.70000541 L51.9467365,5.83334501 Z" id="Path-216-Copy" fill-opacity="0.54" fill="#D6D7D8"></path>
                            <path d="M52.7867547,5.57674374 C53.18741,7.00739642 52.3443083,7.85115807 50.8981997,7.4766886 C50.8981997,7.4766886 38.2365905,3.86958714 28.4794521,3.86958714 C18.7223136,3.86958714 9.48707167,8.44131989 9.48707167,8.44131989 C8.1202199,9.04443169 7.01216761,8.32882848 7.01216761,6.83334501 L7.01216761,3.70000541 C7.01216761,2.2088336 5.80715178,1 4.31923809,1 L4.72717609,1 C3.23991219,1 1.83583979,2.19461785 1.62962117,3.65975968 C1.62962117,3.65975968 -1.28199909,18.5223389 4.31394474,26.5904874 C9.90988857,34.6586359 17.1095172,41.6502131 32.8060592,41.6502131 C48.5026012,41.6502131 60.8269725,36.4907983 64.7312426,23.0120745 C68.6355127,9.53335073 56.9643538,1.86101741 51.9516585,1 C51.9516585,3.07879072 52.7867547,5.57674374 52.7867547,5.57674374 Z" id="Path-216" stroke="#525A6E" stroke-width="2"></path>
                        </g>
                        <g id="mouth" transform="translate(46.006849, 52.125310)" stroke="#525A6E" stroke-width="2" fill="#FFFFFF">
                            <path d="M2.87010378,5.99676037 C0.345227492,4.47820568 0.760911344,1.33727934 0.760911344,1.33727934 C0.767309436,0.598720355 1.37862305,2.27373675e-13 2.12353488,2.27373675e-13 L8.79661677,2.27373675e-13 C9.34903701,2.27373675e-13 9.79686208,0.447610828 9.79686205,0.997975815 L9.79686175,7.51531506 C9.79686175,7.51531506 5.39498006,7.51531506 2.87010378,5.99676037 Z" id="Path-217"></path>
                        </g>
                    </g>
                    <g id="collar" transform="translate(90.000000, 24.000000)" stroke-width="2" stroke-linecap="round">
                        <path d="M4.81054688,1.00976562 C4.81054688,1.00976562 -1.3706054,-2.57486589 1.03466797,16.4838078 C3.43994134,35.5424814 9.87500003,31.4414055 9.87500003,31.4414055" id="Path-210" stroke="#525A6E"></path>
                        <path d="M4.81054688,1.00976563 C4.81054688,1.00976563 0.769531542,30.0981437 5.83398445,48.2050781 C10.8984374,66.3120125 9.87500003,31.4414055 9.87500003,31.4414055" id="Path-210-Copy" stroke="#FFE773"></path>
                    </g>
                </g>
                <g id="dog" transform="translate(65.000000, 278.000000)">
                    <use id="body" stroke="#525A6E" mask="url(#mask-20)" stroke-width="4" fill="#FFFFFF" xlink:href="#path-19"></use>
                    <path d="M20.5014648,62.0247906 C20.7767982,58.1949949 24.1080097,55.090332 27.9511202,55.090332 L29.0488798,55.090332 C32.8878775,55.090332 36.2231749,58.1946201 36.4985352,62.0247906 L36.9280825,67.999651 C36.9678014,68.5521285 36.5452911,69 36.0000398,69 L20.9999602,69 C20.4476974,69 20.0321392,68.5529544 20.0719175,67.999651 L20.5014648,62.0247906 Z" id="Rectangle-184" fill="#D8D8D8"></path>
                    <g id="right-paw" transform="translate(43.000000, 58.000000)">
                        <use id="Oval-209-Copy" stroke="#525A6E" mask="url(#mask-22)" stroke-width="4" stroke-linecap="round" stroke-linejoin="round" fill="#FFFFFF" transform="translate(6.500000, 6.500000) scale(-1, 1) translate(-6.500000, -6.500000) " xlink:href="#path-21"></use>
                        <circle id="Oval-214" fill="#D8D8D8" cx="6.5" cy="6.5" r="1.5"></circle>
                    </g>
                    <g id="left-paw" transform="translate(1.000000, 58.000000)">
                        <use id="Oval-209" stroke="#525A6E" mask="url(#mask-24)" stroke-width="4" stroke-linecap="round" stroke-linejoin="round" fill="#FFFFFF" xlink:href="#path-23"></use>
                        <circle id="Oval-214-Copy" fill="#D8D8D8" cx="6.5" cy="6.5" r="1.5"></circle>
                    </g>
                    <g id="legs" transform="translate(11.000000, 43.000000)" stroke="#525A6E" stroke-width="2" fill="#FFFFFF" stroke-linecap="round">
                        <path d="M0.400634766,0.854492188 L2.51782227,19.7331543 C2.51782227,19.7331543 0.400634766,21.2233887 0.400634766,23.6230469 C0.400634766,26.0227051 2.51782227,27.0097656 2.51782227,27.0097656 L8.69018555,27.0097656 C8.69018555,27.0097656 9.62841797,26.4138184 10.2631836,25.5334473 C10.8979492,24.6530762 10.8979492,23.3051758 10.8979492,23.3051758 L11.8708496,12.3518066" id="left-leg"></path>
                        <path d="M23.4006348,0.854492188 L25.5178223,19.7331543 C25.5178223,19.7331543 23.4006348,21.2233887 23.4006348,23.6230469 C23.4006348,26.0227051 25.5178223,27.0097656 25.5178223,27.0097656 L31.6901855,27.0097656 C31.6901855,27.0097656 32.628418,26.4138184 33.2631836,25.5334473 C33.8979492,24.6530762 33.8979492,23.3051758 33.8979492,23.3051758 L34.8708496,12.3518066" id="right-leg" transform="translate(29.135742, 13.932129) scale(-1, 1) translate(-29.135742, -13.932129) "></path>
                    </g>
                    <g id="ears" transform="translate(9.000000, 1.000000)" stroke="#525A6E" stroke-width="2">
                        <path d="M0.851318359,7.51879883 C0.851318359,7.51879883 4.88183594,11.7226562 7.64794922,10.0847168 C10.4140625,8.44677734 8.57861328,0.629882812 8.57861328,0.629882812" id="left-ear"></path>
                        <path d="M28.3592156,7.71582031 C28.3592156,7.71582031 32.7922648,13.3041992 36.1519402,10.9106445 C39.5116156,8.51708984 35.4644402,0.629882812 35.4644402,0.629882812" id="right-ear" transform="translate(32.922406, 6.068282) scale(-1, 1) translate(-32.922406, -6.068282) "></path>
                    </g>
                    <g id="collar" transform="translate(9.000000, 32.000000)" stroke="#525A6E">
                        <path d="M1.03606502,0 C1.03606502,0 -5.00882602,7 18.8194768,7 C42.6477796,7 37.9816474,0 37.9816474,0" id="Path-234" stroke-width="2"></path>
                        <path d="M19,6.72167969 L19,9.72167969" id="Path-235" stroke-width="2"></path>
                        <use id="Oval-211" mask="url(#mask-26)" stroke-width="4" fill="#FFE773" xlink:href="#path-25"></use>
                    </g>
                    <g id="face" transform="translate(17.000000, 16.000000)">
                        <g id="mouth" transform="translate(2.681657, 6.666667)" fill="#E5E5E5">
                            <path d="M8.25325444,12.2051282 C13.9821607,12.2051282 16.3763314,6.46744953 16.3763314,3.90254651 C16.3763314,1.24860647 13.5929179,0.205128205 8.25325444,0.205128205 C2.91359098,0.205128205 0.130177515,1.24860647 0.130177515,3.90254651 C0.130177515,7.35984927 2.52434819,12.2051282 8.25325444,12.2051282 Z" id="Oval-452-Copy" transform="translate(8.253254, 6.205128) scale(1, -1) translate(-8.253254, -6.205128) "></path>
                        </g>
                        <ellipse id="Oval-450-Copy" fill="#525A6E" cx="19.7349112" cy="2.20512821" rx="2.03076923" ry="2"></ellipse>
                        <path d="M10.9349112,10.5384615 C12.4821929,10.5384615 14.3195266,8.75336148 14.3195266,7.54713133 C14.3195266,6.34090118 12.4392518,6.20512821 11.0791461,6.20512821 C9.71904048,6.20512821 7.55029586,6.29227978 7.55029586,7.54713133 C7.55029586,8.80198289 9.38762956,10.5384615 10.9349112,10.5384615 Z" id="Oval-452" fill="#525A6E"></path>
                        <rect id="Rectangle-361" fill="#525A6E" x="10.2579882" y="9.20512821" width="1.35384615" height="4.66666667" rx="2.56410256"></rect>
                        <ellipse id="Oval-450" fill="#525A6E" cx="2.13491124" cy="2.20512821" rx="2.03076923" ry="2"></ellipse>
                        <path d="M7.8887574,13.8717949 C7.8887574,13.8717949 8.87320451,13.2051282 10.9349112,13.2051282 C12.996618,13.2051282 13.9810651,13.8717949 13.9810651,13.8717949" id="Path-57" stroke="#525A6E" stroke-width="1.33333333" stroke-linecap="round" stroke-linejoin="round" transform="translate(10.934911, 13.538462) scale(1, -1) translate(-10.934911, -13.538462) "></path>
                    </g>
                    <use id="tail" stroke="#525A6E" mask="url(#mask-28)" stroke-width="4" fill="#FFFFFF" xlink:href="#path-27"></use>
                </g>
                <g id="patterns" transform="translate(176.500000, 183.000000) scale(-1, 1) translate(-176.500000, -183.000000) translate(0.000000, 107.000000)">
                    <circle id="Oval-81-Copy" fill="url(#linearGradient-29)" cx="292" cy="67" r="2"></circle>
                    <circle id="Oval-81-Copy" fill="url(#linearGradient-29)" cx="33" cy="2" r="2"></circle>
                    <circle id="Oval-81-Copy-6" fill="url(#linearGradient-30)" cx="334.5" cy="20.5" r="3.5"></circle>
                    <circle id="Oval-81-Copy-7" fill="url(#linearGradient-31)" cx="73.5" cy="97.5" r="3.5"></circle>
                    <use id="Oval-81-Copy-8" stroke="url(#linearGradient-29)" mask="url(#mask-33)" stroke-width="6" xlink:href="#path-32"></use>
                    <use id="Oval-81-Copy-10" stroke="url(#linearGradient-31)" mask="url(#mask-35)" stroke-width="6" xlink:href="#path-34"></use>
                    <circle id="Oval-81-Copy-9" fill="url(#linearGradient-36)" cx="9" cy="143" r="9"></circle>
                    <g id="purple-cross" transform="translate(13.000000, 54.000000)">
                        <path d="M22,11 L-1.42108547e-13,11" id="Path-192-Copy-2" stroke="#9F4AFF" stroke-width="3" stroke-linecap="round"></path>
                        <path d="M11,1.13686838e-13 L11,22" id="Path-192-Copy-3" stroke="#9F4AFF" stroke-width="3" stroke-linecap="round"></path>
                        <rect id="Rectangle-130" fill="#FFFFFF" x="7.60660172" y="7.24264069" width="7" height="7"></rect>
                    </g>
                    <g id="green-cross" transform="translate(245.150758, 112.263456) rotate(-315.000000) translate(-245.150758, -112.263456) translate(233.650758, 100.763456)">
                        <path d="M22.9289322,11.5147186 L0.928932188,11.5147186" id="Path-192-Copy-2" stroke="#21CE99" stroke-width="3" stroke-linecap="round"></path>
                        <path d="M11.7781746,0.221825407 L11.7781746,22.2218254" id="Path-192-Copy-3" stroke="#21CE99" stroke-width="3" stroke-linecap="round"></path>
                        <rect id="Rectangle-130" fill="#FFFFFF" x="8.25735931" y="7.94365081" width="7" height="7"></rect>
                    </g>
                </g>
                <g id="lyric" transform="translate(31.000000, 2.000000)">
                    <use id="Rectangle-180" stroke="#DCE2EE" mask="url(#mask-38)" stroke-width="4" transform="translate(145.500000, 42.992975) scale(-1, 1) translate(-145.500000, -42.992975) " xlink:href="#path-37"></use>
                    <text id="&quot;Some-days-I’m-in-my" font-family="OpenSans-SemiboldItalic, Open Sans" font-size="15" font-style="italic" font-weight="500" letter-spacing="0.46875" fill="#525A6E">
                        <tspan x="38.3007812" y="31">"Some days I’m in my Yeezy’s, </tspan>
                        <tspan x="49.2138672" y="51">some days I’m in my Vans”</tspan>
                    </text>
                </g>
            </g>
        </g>
    </g>
</svg>